# xmcd
#
# Track frame offsets: 
#        150
#        33757
#        75966
#        88086
#        117301
#        156763
#
# Disc length: 2819 seconds
#
# Revision: 10
# Processed by: cddbd v1.5.2PL0 Copyright (c) Steve Scherf et al.
# Submitted via: ExactAudioCopy v1.3
#
DISCID=370b0106
DTITLE=Getz and Gilberto - Getz and Gilberto - Jazz and Blues CD 1
DYEAR=2000
DGENRE=Jazz
TTITLE0=Autumn Leaves
TTITLE1=Chappaqua
TTITLE2=Don't Worry About Me
TTITLE3=Heart Pace
TTITLE4=Kali,Au
TTITLE5=Billie`s Bounce
EXTD=Jazz Master Collection 3 YEAR: 2000
EXTT0=
EXTT1=
EXTT2=
EXTT3=
EXTT4=
EXTT5=
PLAYORDER=
